<svg width="40" height="40" viewBox="0 0 40 40" fill="none" xmlns="http://www.w3.org/2000/svg">
<g id="Linear / Shopping, Ecommerce / Cart 4">
<path id="Vector" d="M5.92572 23.762C4.72829 18.1738 4.12957 15.3799 5.63049 13.5233C7.13141 11.6667 9.98886 11.6667 15.7038 11.6667L24.2973 11.6667C30.0123 11.6667 32.8697 11.6667 34.3707 13.5233C35.8715 15.3799 35.2728 18.1738 34.0753 23.762L33.3612 27.0953C32.5495 30.8828 32.1437 32.7767 30.7685 33.8883C29.3933 35 27.4567 35 23.583 35L16.418 35C12.5445 35 10.6077 35 9.23257 33.8883C7.85746 32.7767 7.45164 30.8828 6.64002 27.0953L5.92572 23.762Z" stroke="black" stroke-width="3"/>
<path id="Vector_2" d="M5.00049 18.3333L35.0005 18.3333" stroke="black" stroke-width="3" stroke-linecap="round" stroke-linejoin="round"/>
<path id="Vector_3" d="M16.667 23.3333L23.3337 23.3333" stroke="black" stroke-width="3" stroke-linecap="round" stroke-linejoin="round"/>
<path id="Vector_4" d="M30.0005 15L25.0005 5" stroke="black" stroke-width="3" stroke-linecap="round" stroke-linejoin="round"/>
<path id="Vector_5" d="M10.0005 15L15.0005 5" stroke="black" stroke-width="3" stroke-linecap="round" stroke-linejoin="round"/>
</g>
</svg>
