<svg width="210" height="50" viewBox="0 0 210 50" fill="none" xmlns="http://www.w3.org/2000/svg">
<g id="Makro logo-green 1" clip-path="url(#clip0_1932_1255)">
<g id="Group">
<path id="Vector" fill-rule="evenodd" clip-rule="evenodd" d="M26.3843 21.9084C31.5419 25.3917 38.5139 32.7584 38.6273 41.4209C30.0131 48.1709 17.8247 48.0584 9.26514 41.2542C16.6907 36.6417 22.8101 29.7792 26.3843 21.9084Z" fill="#75CA51"/>
<path id="Vector_2" fill-rule="evenodd" clip-rule="evenodd" d="M26.3843 21.9083C29.5007 15.3292 30.8615 8.07501 30.5213 0.879181C36.4181 2.50835 41.4035 6.44585 44.4107 11.6208C47.4137 16.7958 48.3209 23.0375 46.7921 28.9417C40.7231 24.9458 33.6965 22.525 26.3843 21.9083Z" fill="#75CA51"/>
<path id="Vector_3" fill-rule="evenodd" clip-rule="evenodd" d="M15.4978 1.60834C22.978 6.05 25.9264 15.7208 26.38 21.9083C17.707 21.0083 8.69378 22.8625 0.986779 26.9125C-0.710021 16.1708 5.24138 5.65417 15.4978 1.60834Z" fill="#75CA51"/>
<path id="Vector_4" fill-rule="evenodd" clip-rule="evenodd" d="M65.436 46.5917C67.4184 46.5917 68.9514 45.6917 68.9514 43.6667V43.6125C68.9514 41.925 67.4772 41.3083 66.1752 40.9125C65.1546 40.575 64.3062 40.35 64.3062 39.8458V39.7917C64.3062 39.4542 64.6464 39.175 65.268 39.175C65.835 39.175 66.5154 39.4 67.2504 39.7375C67.4184 39.85 67.5318 39.85 67.7586 39.85C68.3256 39.85 68.8338 39.4 68.8338 38.8375C68.8338 38.3875 68.607 38.05 68.2122 37.8833C67.305 37.4333 66.3432 37.2083 65.3772 37.2083C63.5082 37.2083 62.034 38.2208 62.034 40.1333V40.1875C62.034 41.9875 63.5082 42.55 64.8102 42.9417C65.8308 43.2208 66.738 43.4458 66.738 44.0083V44.0625C66.738 44.4542 66.3978 44.7375 65.6628 44.7375C64.9278 44.7375 64.0206 44.4583 63.168 43.8958C63.0546 43.7833 62.8278 43.7833 62.6598 43.7833C62.0928 43.7833 61.6392 44.2333 61.6392 44.7958C61.6392 45.1875 61.866 45.525 62.1474 45.6958C63.0588 46.2542 64.302 46.5917 65.436 46.5917ZM79.212 38.4958C79.212 37.7667 78.645 37.2042 77.91 37.2042C77.175 37.2042 76.608 37.7667 76.608 38.4958V42.375C76.608 43.6125 75.9864 44.2292 74.9658 44.2292C73.9452 44.2292 73.3782 43.6125 73.3782 42.375V38.4958C73.3782 37.7667 72.8112 37.2042 72.0762 37.2042C71.3412 37.2042 70.7742 37.7667 70.7742 38.4958V43.2208C70.7742 45.3 71.9082 46.5958 73.8906 46.5958C75.1926 46.5958 75.9864 45.9208 76.6122 45.1333V45.2458C76.6122 45.975 77.1792 46.5375 77.9142 46.5375C78.6492 46.5375 79.2162 45.975 79.2162 45.2458V38.4958H79.212ZM81.5346 47.9417C81.5346 48.6708 82.1016 49.2333 82.8366 49.2333C83.5716 49.2333 84.1386 48.6708 84.1386 47.9417V45.1875C84.7602 45.9167 85.6128 46.5375 87.0282 46.5375C89.1828 46.5375 91.224 44.85 91.224 41.8125V41.7583C91.224 38.7208 89.1828 37.0333 87.0282 37.0333C85.6674 37.0333 84.819 37.65 84.1386 38.4958V38.3833C84.1386 37.6542 83.5716 37.0917 82.8366 37.0917C82.1016 37.0917 81.5346 37.6542 81.5346 38.3833V47.9417ZM86.352 44.4C85.1046 44.4 84.1428 43.3875 84.1428 41.8708V41.8167C84.1428 40.3 85.1634 39.2875 86.352 39.2875C87.5994 39.2875 88.62 40.3 88.62 41.8167V41.8708C88.62 43.3875 87.5994 44.4 86.352 44.4ZM95.2518 41.1375C95.4786 39.9583 96.159 39.1708 97.2342 39.1708C98.3094 39.1708 99.0486 39.9583 99.162 41.1375H95.2518ZM100.75 45.525C100.918 45.3583 101.09 45.075 101.09 44.7375C101.09 44.175 100.636 43.725 100.069 43.725C99.7878 43.725 99.6156 43.7792 99.4476 43.95C98.9394 44.3417 98.3136 44.5667 97.5786 44.5667C96.39 44.5667 95.5962 43.95 95.3106 42.7667H100.468C101.149 42.7667 101.716 42.2625 101.716 41.5292C101.716 39.6167 100.355 37.1417 97.293 37.1417C94.6302 37.1417 92.757 39.2792 92.757 41.9208V41.975C92.757 44.7875 94.7982 46.7 97.5744 46.7C98.8806 46.5917 99.9012 46.2 100.75 45.525ZM103.698 45.2458C103.698 45.975 104.265 46.5375 105 46.5375C105.735 46.5375 106.302 45.975 106.302 45.2458V42.8292C106.302 40.975 107.037 39.9625 108.343 39.6792C108.851 39.5667 109.305 39.175 109.305 38.4417C109.305 37.7125 108.851 37.2042 108.058 37.2042C107.264 37.2042 106.642 38.0458 106.302 38.8917V38.5C106.302 37.7708 105.735 37.2083 105 37.2083C104.265 37.2083 103.698 37.7708 103.698 38.5V45.2458ZM110.897 45.2458C110.897 45.975 111.464 46.5375 112.199 46.5375C112.934 46.5375 113.501 45.975 113.501 45.2458V41.3083C113.501 40.0708 114.122 39.4542 115.088 39.4542C116.05 39.4542 116.617 40.0708 116.617 41.3083V45.2458C116.617 45.975 117.184 46.5375 117.919 46.5375C118.654 46.5375 119.221 45.975 119.221 45.2458V41.3083C119.221 40.0708 119.843 39.4542 120.809 39.4542C121.771 39.4542 122.338 40.0708 122.338 41.3083V45.2458C122.338 45.975 122.905 46.5375 123.64 46.5375C124.375 46.5375 124.942 45.975 124.942 45.2458V40.4625C124.942 38.2708 123.753 37.0875 121.825 37.0875C120.578 37.0875 119.616 37.5917 118.822 38.55C118.314 37.65 117.407 37.0875 116.214 37.0875C114.912 37.0875 114.118 37.7625 113.492 38.55V38.4375C113.492 37.7083 112.925 37.1458 112.19 37.1458C111.455 37.1458 110.888 37.7083 110.888 38.4375L110.897 45.2458ZM129.83 46.5917C131.078 46.5917 131.985 46.1417 132.607 45.4125C132.607 45.975 133.115 46.4792 133.854 46.4792C134.534 46.4792 135.101 45.9167 135.101 45.2417V41.0833C135.101 39.8458 134.82 38.8333 134.081 38.1583C133.4 37.4833 132.38 37.1458 130.964 37.1458C129.717 37.1458 128.869 37.3125 128.016 37.65C127.621 37.8167 127.336 38.2125 127.336 38.6625C127.336 39.2792 127.844 39.7292 128.411 39.7292C128.524 39.7292 128.638 39.7292 128.806 39.675C129.314 39.5083 129.881 39.3958 130.62 39.3958C131.922 39.3958 132.602 40.0125 132.602 41.0833V41.25C131.922 41.025 131.3 40.8583 130.334 40.8583C128.18 40.8583 126.651 41.7583 126.651 43.7833V43.8375C126.655 45.5833 128.071 46.5917 129.83 46.5917ZM130.624 44.7958C129.776 44.7958 129.209 44.4042 129.209 43.6708V43.6167C129.209 42.775 129.889 42.3792 131.023 42.3792C131.645 42.3792 132.271 42.4917 132.665 42.7167V43.1667C132.665 44.1208 131.872 44.7958 130.624 44.7958ZM137.424 45.2458C137.424 45.975 137.991 46.5375 138.726 46.5375C139.461 46.5375 140.028 45.975 140.028 45.2458V42.8292C140.028 40.975 140.763 39.9625 142.069 39.6792C142.577 39.5667 143.031 39.175 143.031 38.4417C143.031 37.7125 142.577 37.2042 141.784 37.2042C140.99 37.2042 140.368 38.0458 140.028 38.8917V38.5C140.028 37.7708 139.461 37.2083 138.726 37.2083C137.991 37.2083 137.424 37.7708 137.424 38.5V45.2458ZM144.568 45.2458C144.568 45.975 145.135 46.5375 145.87 46.5375C146.605 46.5375 147.172 45.975 147.172 45.2458V43.7833L148.193 42.8292L150.461 45.9792C150.742 46.4292 151.082 46.5958 151.595 46.5958C152.275 46.5958 152.842 46.0917 152.842 45.4167C152.842 45.1375 152.729 44.9125 152.502 44.575L150.066 41.25L152.107 39.5083C152.447 39.1708 152.729 38.8333 152.729 38.3833C152.729 37.7667 152.275 37.2042 151.595 37.2042C151.141 37.2042 150.801 37.4292 150.461 37.7667L147.172 40.8583V35.1792C147.172 34.45 146.605 33.8875 145.87 33.8875C145.135 33.8875 144.568 34.45 144.568 35.1792V45.2458ZM156.639 41.1375C156.866 39.9583 157.546 39.1708 158.621 39.1708C159.697 39.1708 160.436 39.9583 160.549 41.1375H156.639ZM162.082 45.525C162.25 45.3583 162.422 45.075 162.422 44.7375C162.422 44.175 161.969 43.725 161.402 43.725C161.12 43.725 160.948 43.7792 160.78 43.95C160.272 44.3417 159.646 44.5667 158.911 44.5667C157.723 44.5667 156.929 43.95 156.643 42.7667H161.801C162.481 42.7667 163.048 42.2625 163.048 41.5292C163.048 39.6167 161.687 37.1417 158.626 37.1417C155.963 37.1417 154.09 39.2792 154.09 41.9208V41.975C154.09 44.7875 156.131 46.7 158.907 46.7C160.213 46.5917 161.288 46.2 162.082 45.525ZM168.206 46.5917C168.773 46.5917 169.226 46.5375 169.68 46.3125C170.02 46.2 170.36 45.8083 170.36 45.3583C170.36 44.7417 169.852 44.2917 169.285 44.2917C169.231 44.2917 169.058 44.2917 169.004 44.2917C168.437 44.2917 168.155 44.0125 168.155 43.3917V39.5125H169.289C169.911 39.5125 170.423 39.0083 170.423 38.3875C170.423 37.7667 169.915 37.2625 169.289 37.2625H168.155V36.1375C168.155 35.4083 167.588 34.8458 166.853 34.8458C166.118 34.8458 165.551 35.4083 165.551 36.1375V37.2625H165.438C164.816 37.2625 164.304 37.7667 164.304 38.3875C164.304 39.0083 164.812 39.5125 165.438 39.5125H165.551V43.8417C165.484 45.9208 166.559 46.5917 168.206 46.5917Z" fill="#75CA51"/>
<path id="Vector_5" fill-rule="evenodd" clip-rule="evenodd" d="M200.625 29.2167C202.893 29.2167 204.876 28.375 206.635 26.6875C208.391 25 209.298 22.8625 209.298 20.3875V17.6334C209.298 15.1584 208.391 13.0209 206.635 11.3917C204.821 9.76252 202.78 8.91669 200.571 8.91669H193.145C190.877 8.91669 188.781 9.75835 186.908 11.3917C185.039 13.0792 184.132 15.1584 184.132 17.6334V20.5C184.132 22.975 185.039 25.1125 186.795 26.7417C188.55 28.3709 190.537 29.2167 192.805 29.2167H200.625ZM203.292 18.0834V19.8834C203.292 21.1209 202.839 22.2459 201.99 23.1459C201.083 24.0459 200.062 24.4375 198.874 24.4375H194.51C193.321 24.4375 192.242 23.9875 191.394 23.1459C190.486 22.2459 190.092 21.1792 190.092 19.8834V18.0834C190.092 16.7917 190.545 15.6667 191.394 14.8209C192.301 13.9792 193.321 13.5292 194.569 13.5292H198.933C200.235 13.5292 201.255 13.9792 202.108 14.8209C202.893 15.6667 203.347 16.7917 203.292 18.0834Z" fill="#75CA51"/>
<path id="Vector_6" fill-rule="evenodd" clip-rule="evenodd" d="M168.6 18.475C168.6 16.9583 168.94 15.7208 169.675 14.875C170.356 13.975 171.431 13.5833 172.851 13.5833H181.465V8.86249H171.603C168.94 8.86249 166.727 9.76249 165.139 11.45C163.497 13.1375 162.645 15.4417 162.645 18.3125V29.2208H168.596L168.6 18.475Z" fill="#75CA51"/>
<path id="Vector_7" fill-rule="evenodd" clip-rule="evenodd" d="M152.275 8.86251L149.894 12.4042C149.327 13.2458 148.76 13.8667 148.193 14.2583C147.626 14.65 146.891 14.8208 145.925 14.8208H141.107V0.762512H135.097V29.2167H141.107V19.5458H144.564C145.979 19.5458 146.945 19.7125 147.454 20.05C147.962 20.3875 148.474 21.1167 149.041 22.1292L152.897 29.2125H159.642L154.652 20.0458C153.859 18.6417 152.838 17.7958 151.423 17.6292C152.725 17.35 153.691 16.6167 154.484 15.4917L158.962 8.91251L152.275 8.86251Z" fill="#75CA51"/>
<path id="Vector_8" fill-rule="evenodd" clip-rule="evenodd" d="M110.615 16.6208C109.087 16.6208 107.726 17.1833 106.478 18.3083C105.231 19.4333 104.609 20.95 104.609 22.8625C104.609 24.6042 105.176 26.0667 106.31 27.3042C107.444 28.5417 108.86 29.1583 110.506 29.1583H122.182C124.564 29.1583 126.433 28.4292 127.793 26.9083C129.154 25.4458 129.835 23.7042 129.835 21.7333V15.8333C129.835 13.8667 129.154 12.1792 127.852 10.8292C126.55 9.47917 124.45 8.80417 121.674 8.80417H107.503V13.5833H120.88C121.901 13.5833 122.636 13.8083 123.148 14.2C123.656 14.65 123.829 15.2125 123.829 15.8292V16.5042L110.615 16.6208ZM123.879 20.8375V22.075C123.879 22.75 123.652 23.3125 123.199 23.7625C122.69 24.2125 122.123 24.4375 121.33 24.4375H111.804C111.35 24.4375 110.956 24.2708 110.615 23.9333C110.275 23.5958 110.107 23.1458 110.107 22.5833C110.107 22.0792 110.275 21.6292 110.615 21.2917C110.956 21.0125 111.35 20.7875 111.804 20.7875L123.879 20.8375Z" fill="#75CA51"/>
<path id="Vector_9" fill-rule="evenodd" clip-rule="evenodd" d="M84.2014 29.2167V19.15C84.2014 17.6333 84.5962 16.2833 85.3354 15.2125C86.8096 13.0208 91.7992 13.0208 93.5548 14.9333C94.3486 15.8333 94.7434 16.9583 94.7434 18.3083V29.275H100.695V18.3625C100.695 15.6083 99.901 13.3 98.3134 11.5583C94.3444 7.17083 84.7642 8.12916 81.3664 12.625C78.1366 7.9 68.2708 7.5625 64.3606 11.6708C62.6596 13.4708 61.7524 15.7208 61.7524 18.3625V29.2708H67.7038V18.3083C67.7038 16.9583 68.0986 15.8333 68.8924 14.9917C70.5934 13.1375 75.5242 13.1375 77.1118 15.1042C77.8468 16.0583 78.187 17.2958 78.187 18.8167V29.275L84.2014 29.2167Z" fill="#75CA51"/>
</g>
</g>
<defs>
<clipPath id="clip0_1932_1255">
<rect width="210" height="50" fill="white"/>
</clipPath>
</defs>
</svg>
