<svg width="200" height="200" viewBox="0 0 200 200" fill="none" xmlns="http://www.w3.org/2000/svg">
<g id="Price Icon Without Nums" clip-path="url(#clip0_1312_25591)">
<g id="Icon">
<g id="Rectangle 40" filter="url(#filter0_d_1312_25591)">
<path d="M54.5432 119.25C55.4319 112.649 55.8763 109.348 57.4881 106.884C58.7915 104.891 60.6172 103.295 62.7658 102.269C65.4229 101 68.7536 101 75.415 101H138.452C147.087 101 151.405 101 154.467 102.812C156.931 104.27 158.845 106.501 159.912 109.158C161.237 112.46 160.58 116.728 159.267 125.262L157.747 135.142C156.752 141.612 156.254 144.847 154.633 147.257C153.321 149.207 151.506 150.764 149.38 151.764C146.752 153 143.478 153 136.932 153H74.085C65.5952 153 61.3503 153 58.313 151.227C55.8675 149.799 53.9551 147.612 52.8664 144.998C51.5143 141.751 52.0806 137.544 53.2132 129.13L54.5432 119.25Z" fill="white"/>
</g>
<g id="2nd floor">
<path id="Vector 14" d="M36 124.5V96C36 82.4 49.3333 77 56 75.9999L137.5 63C152.7 61 155.5 67.9999 155.5 76V103.5C155.5 117.5 144 122.333 138.5 123.5C116.167 127.5 68.4 134.6 54 137C39.6 139.4 36 129.667 36 124.5Z" fill="url(#paint0_linear_1312_25591)"/>
</g>
<g id="1st floor">
<path id="Rectangle 41" d="M102 63.7985C102 61.3914 102 60.1879 102.278 59.161C102.896 56.8772 104.494 54.9842 106.641 53.9909C107.607 53.5443 108.793 53.342 111.166 52.9376L133.275 49.169C136.363 48.6427 137.907 48.3795 139.162 48.5639C142.17 49.0056 144.667 51.113 145.607 54.0031C146 55.2099 146 56.776 146 59.9081C146 62.1928 146 63.3351 145.748 64.3149C145.149 66.6462 143.532 68.5837 141.345 69.5903C140.426 70.0134 139.303 70.2177 137.055 70.6264L114.989 74.6384C111.743 75.2286 110.12 75.5237 108.802 75.3241C105.854 74.8776 103.399 72.8286 102.432 70.008C102 68.7471 102 67.0976 102 63.7985Z" fill="#FF0C01"/>
</g>
</g>
</g>
<defs>
<filter id="filter0_d_1312_25591" x="-3.92236" y="49" width="220.559" height="164" filterUnits="userSpaceOnUse" color-interpolation-filters="sRGB">
<feFlood flood-opacity="0" result="BackgroundImageFix"/>
<feColorMatrix in="SourceAlpha" type="matrix" values="0 0 0 0 0 0 0 0 0 0 0 0 0 0 0 0 0 0 127 0" result="hardAlpha"/>
<feOffset dy="4"/>
<feGaussianBlur stdDeviation="28"/>
<feComposite in2="hardAlpha" operator="out"/>
<feColorMatrix type="matrix" values="0 0 0 0 0 0 0 0 0 0 0 0 0 0 0 0 0 0 0.1 0"/>
<feBlend mode="normal" in2="BackgroundImageFix" result="effect1_dropShadow_1312_25591"/>
<feBlend mode="normal" in="SourceGraphic" in2="effect1_dropShadow_1312_25591" result="shape"/>
</filter>
<linearGradient id="paint0_linear_1312_25591" x1="54" y1="87.9999" x2="155" y2="118" gradientUnits="userSpaceOnUse">
<stop stop-color="#FFC80A"/>
<stop offset="1" stop-color="#FAA61C"/>
</linearGradient>
<clipPath id="clip0_1312_25591">
<rect width="200" height="200" fill="white"/>
</clipPath>
</defs>
</svg>
